<svg xmlns="http://www.w3.org/2000/svg" width="430" height="430" style="width:100%;height:100%;transform:translate3d(0,0,0);content-visibility:visible" viewBox="0 0 430 430"><defs><clipPath id="a"><path d="M0 0h430v430H0z"/></clipPath><clipPath id="c"><path d="M0 0h430v430H0z"/></clipPath><clipPath id="b"><path d="M0 0h430v430H0z"/></clipPath></defs><g clip-path="url(#a)"><g clip-path="url(#b)" style="display:block"><path fill="#4BB3FD" d="M0-73.087c74.507 0 135 32.75 135 73.087 0 40.336-60.493 73.087-135 73.087S-135 40.337-135 0c0-40.336 60.493-73.087 135-73.087z" class="primary" style="display:block" transform="translate(215 277.086)"/><g opacity=".7" style="mix-blend-mode:multiply;display:block"><path fill="#4BB3FD" d="M215 204c74.507 0 135 32.75 135 73.086s-60.493 73.087-135 73.087-135-32.75-135-73.087c0-40.336 60.493-73.087 135-73.087z" class="primary" opacity="1"/></g><path fill="#4BB3FD" d="M0 11.42c74.558 0 135-32.722 135-73.087v53.902h-.166C131.317 30.902 72.295 61.667 0 61.667S-131.317 30.902-134.834-7.765H-135v-53.902C-135-21.302-74.558 11.42 0 11.42z" class="primary" style="display:block" transform="translate(215 338.753)"/><g opacity=".3" style="mix-blend-mode:multiply;display:block"><path fill="#4BB3FD" d="M80 330.901h.166c2.945 32.375 44.801 59.211 100.78 67.087-43.057-11.357-73.293-34.747-75.78-62.087H105V319.38C89.259 307.427 80 292.799 80 277v53.901z" class="primary" opacity="1"/></g><path fill="#4BB3FD" d="M0-73.087c74.507 0 135 32.75 135 73.087 0 40.336-60.493 73.087-135 73.087S-135 40.337-135 0c0-40.336 60.493-73.087 135-73.087z" class="primary" style="display:block" transform="translate(215 189.877)"/><g opacity=".7" style="mix-blend-mode:multiply;display:block"><path fill="#4BB3FD" d="M215 116.79c74.507 0 135 32.75 135 73.087 0 40.336-60.493 73.087-135 73.087s-135-32.75-135-73.087c0-40.336 60.493-73.087 135-73.087z" class="primary" opacity="1"/></g><path fill="#4BB3FD" d="M0 11.42c74.558 0 135-32.722 135-73.087v53.902h-.166C131.317 30.902 72.295 61.667 0 61.667S-131.317 30.902-134.834-7.765H-135v-53.902C-135-21.302-74.558 11.42 0 11.42z" class="primary" style="display:block" transform="translate(215 251.543)"/><g opacity=".3" style="mix-blend-mode:multiply;display:block"><path fill="#4BB3FD" d="M80 243.901h.166c2.945 32.375 44.801 59.211 100.78 67.087-43.057-11.357-73.293-34.747-75.78-62.087H105V232.38C89.259 220.427 80 205.799 80 190v53.901z" class="primary" opacity="1"/></g><path fill="#4BB3FD" d="M0-73.087c74.507 0 135 32.75 135 73.087 0 40.336-60.493 73.087-135 73.087S-135 40.337-135 0c0-40.336 60.493-73.087 135-73.087z" class="primary" style="display:block" transform="translate(215 103.086)"/><g opacity=".7" style="mix-blend-mode:multiply;display:block"><path fill="#4BB3FD" d="M215 30c74.507 0 135 32.75 135 73.086s-60.493 73.087-135 73.087-135-32.75-135-73.087c0-40.336 60.493-73.087 135-73.087z" class="primary" opacity="1"/></g><path fill="#4BB3FD" d="M0 11.42c74.558 0 135-32.722 135-73.087v53.902h-.166C131.317 30.902 72.295 61.667 0 61.667S-131.317 30.902-134.834-7.765H-135v-53.902C-135-21.302-74.558 11.42 0 11.42z" class="primary" style="display:block" transform="translate(215 164.753)"/><g opacity=".3" style="mix-blend-mode:multiply;display:block"><path fill="#4BB3FD" d="M80 156.901h.166c2.945 32.375 44.801 59.211 100.78 67.087-43.057-11.357-73.293-34.747-75.78-62.087H105V145.38C89.259 133.427 80 118.799 80 103v53.901z" class="primary" opacity="1"/></g><g fill="none" stroke-linecap="round" stroke-linejoin="round" stroke-width="16" style="display:block"><path stroke="#FFC738" d="M117.427 265.547s0 0 0 0" class="secondary"/><path stroke="#F24C00" d="M147.676 280.901s0 0 0 0" class="tertiary"/><path stroke="#FFC738" d="M117.427 179.186s0 0 0 0" class="secondary"/><path stroke="#F24C00" d="M147.676 194.539s0 0 0 0" class="tertiary"/><path stroke="#FFC738" d="M117.573 348.761s0 0 0 0" class="secondary"/></g></g><g clip-path="url(#c)" style="display:none"><path class="primary" style="display:none"/><path class="primary" style="mix-blend-mode:multiply;display:none"/><g style="display:none"><path class="primary"/><path class="primary" style="mix-blend-mode:multiply"/></g><path class="primary" style="display:none"/><path class="primary" style="mix-blend-mode:multiply;display:none"/><g style="display:none"><path class="primary"/><path class="primary" style="mix-blend-mode:multiply"/></g><g style="display:none"><path class="primary"/><path class="primary" style="mix-blend-mode:multiply"/><path class="primary"/><path class="primary" style="mix-blend-mode:multiply"/></g><g fill="none" style="display:none"><path class="secondary"/><path class="tertiary"/></g><g fill="none" style="display:none"><path class="secondary"/><path class="tertiary"/></g><path fill="none" class="secondary" style="display:none"/></g></g></svg>